<svg width="51" height="28" viewBox="0 0 51 28" fill="none" xmlns="http://www.w3.org/2000/svg">
<path d="M7.22013 0.837809C6.80874 0.963495 6.5035 1.1124 6.19199 1.32099C5.46221 1.83552 4.92846 2.78091 5.19937 3.99186C5.37788 4.81905 5.96714 5.41189 6.75358 5.73587C7.06327 5.88908 7.75674 6.17916 7.8887 6.53088C8.04768 6.9699 7.72678 7.38262 7.47179 7.51268C6.97123 7.79792 6.38015 7.56687 5.80293 7.66306C5.4468 7.72216 5.21568 7.85473 5.15353 8.10158C5.11712 8.21842 5.0801 8.45585 5.24471 8.72654C5.59589 9.1737 6.38477 9.01529 6.87658 9.04285C7.76535 8.96733 8.43861 8.53132 8.78463 8.10918C9.00568 7.84283 9.24365 7.30073 9.31458 6.97033C9.47965 6.20339 9.07879 5.42522 8.61142 5.05032C7.9311 4.5203 6.62274 4.45518 6.5145 3.18893C6.47612 2.75052 7.01119 2.25171 7.61794 2.21896C8.01804 2.20068 8.22727 2.62085 8.35983 2.85197C8.51125 3.13334 8.66396 3.63204 8.96106 3.67533C9.42524 3.73618 9.79259 3.11116 9.74543 2.75628C9.74478 2.64762 9.57888 2.15961 9.46642 1.9668C9.21566 1.02342 7.86139 0.59149 7.22013 0.837809ZM11.1706 5.07797C11.6084 5.16019 12.1661 4.67583 13.0762 4.62669C13.3469 4.69134 13.6875 5.35457 13.3465 5.72898C13.1304 5.94759 12.1116 5.76812 11.508 5.88567C11.1626 5.95795 10.7185 6.16467 10.5339 6.31419C10.2437 6.54915 9.88953 6.93424 9.95433 7.58055C9.96128 7.8588 10.1736 8.13451 10.3684 8.34803C10.8345 8.96413 11.349 9.2354 12.0243 9.58389C12.2184 9.68875 12.6989 9.82372 12.9055 9.80924C13.1957 9.80354 13.5512 9.40652 13.6598 9.17662C13.9185 8.55224 14.1068 7.9084 14.3108 7.23001C14.4703 6.63139 14.7396 5.79094 14.6886 5.01335C14.6584 4.38274 14.3128 3.76724 13.8995 3.56694C13.1652 3.32084 12.5541 3.51 11.7621 3.81287C11.3626 3.93981 10.8853 4.11889 10.8948 4.60254C10.908 4.82112 10.9526 4.9706 11.1706 5.07797ZM12.2946 6.89743C12.5226 6.90932 12.9823 6.89732 13.1237 7.0449C13.0798 7.4626 12.9562 8.29424 12.5762 8.35083C12.0121 8.20708 11.1553 7.86364 11.2161 7.1702C11.4202 6.95033 11.8385 6.87363 12.2946 6.89743ZM17.0542 8.16991C17.0334 7.56442 16.9296 6.60029 16.8478 6.00046C16.8076 5.69458 16.756 5.03758 16.6196 4.84226C16.3778 4.50312 15.7622 4.61942 15.5437 4.8619C15.4884 4.92849 15.3415 5.1785 15.4245 5.53714C15.4308 6.16525 15.9072 7.83217 16.0688 8.93511C16.1329 9.47276 16.1581 9.92185 16.5193 10.0443C17.1092 10.2873 17.6385 9.49827 17.9343 9.09498C18.9095 7.73748 19.302 7.10303 19.7962 6.41894C20.0656 6.03701 20.4431 5.77503 20.3205 5.21917C20.2369 4.75187 19.7589 4.59304 19.3864 4.80728C18.9506 5.05106 18.7578 5.62204 18.4282 6.11829C17.9704 6.68555 17.5302 7.54424 17.0542 8.16991ZM21.8015 8.8016C22.098 8.73623 22.6023 8.64445 22.9836 8.57593C23.5488 8.47848 23.8409 8.34025 24.398 8.20575C24.7315 8.13221 25.0009 7.75028 25.0109 7.42554C25.0335 7.21073 24.9166 6.71579 24.8481 6.5638C24.4616 5.3045 23.5194 4.85556 22.3072 5.13839C21.8148 5.23143 21.2288 5.64042 20.8859 6.14736C20.4488 6.63233 20.2385 7.37039 20.3574 8.42057C20.5768 9.43305 20.8507 9.81175 21.776 10.3072C22.3508 10.6934 23.5366 10.6612 24.1917 10.2836C24.4121 10.1378 24.5107 9.77412 24.277 9.47204C23.8523 9.14988 23.4504 9.75921 22.6684 9.50809C22.1546 9.34549 21.8556 9.20547 21.8015 8.8016ZM22.0386 6.54603C22.8544 6.0164 23.5654 6.1394 23.7804 7.07902C23.6994 7.27563 23.332 7.44214 23.0512 7.47296C22.6247 7.5126 21.8717 7.67477 21.6606 7.61639C21.5877 7.39153 21.7019 6.76404 22.0386 6.54603ZM30.6163 4.10527C30.1057 4.25673 30.0926 5.18445 29.9558 5.7975C29.6652 7.0701 29.509 8.44128 29.1141 9.78738C28.9622 10.3144 28.6527 11.3075 29.2632 11.4682C29.5804 11.5498 30.0678 11.2752 30.2267 11.0265C30.459 10.6527 30.4344 9.85375 30.5587 9.36004C30.7809 8.39397 31.0005 6.99326 31.2409 5.96877C31.3508 5.49767 31.698 4.83434 31.5874 4.50899C31.4642 4.07373 30.9152 4.01603 30.6163 4.10527ZM35.6809 4.72205C33.5095 4.83168 32.7416 6.74188 32.4291 8.33795C32.2012 9.01383 31.981 10.5351 32.7316 11.0846C33.2361 11.4514 33.9692 11.9387 34.9823 11.8279C37.7158 11.5361 38.4249 7.77359 37.8977 6.47538C37.6219 5.77068 36.8944 4.65653 35.6809 4.72205ZM34.2316 7.0312C34.4853 6.68382 35.0586 6.16491 35.5266 6.18996C36.1377 6.23006 36.6931 7.14513 36.7064 7.59297C36.743 8.62243 36.0988 10.3888 34.9758 10.5121C34.5361 10.5624 33.8357 10.2233 33.6849 9.82135C33.4788 9.25671 33.7097 7.74858 34.2316 7.0312ZM45.5954 5.47452C44.9755 5.51796 44.8223 5.82764 44.4687 6.32139C43.9142 7.1198 43.4954 7.77561 42.9811 8.65065C42.6847 9.17454 42.4223 9.60546 42.1033 10.1149C41.9105 10.4566 41.4388 10.9259 41.4163 11.37C41.3994 11.875 41.8687 12.1174 42.3937 11.9433C42.9678 11.7623 43.3772 10.8521 43.6698 10.364C44.1671 9.53547 44.7021 8.57815 45.3194 7.64154C45.5913 7.23574 46.3675 6.27964 46.2613 5.79789C46.2066 5.51462 45.9729 5.4418 45.5954 5.47452ZM41.2043 5.12159C40.6107 5.14366 39.9249 5.46976 39.6831 5.8184C39.2994 6.36931 39.2493 7.53446 39.7607 7.95019C41.279 9.23192 43.2008 7.93771 42.9833 6.56344C42.884 5.90143 42.0045 5.08503 41.2043 5.12159ZM41.6939 7.00709C41.5225 7.83371 40.1839 6.90872 41.0343 6.39479C41.4394 6.32877 41.7817 6.63021 41.6939 7.00709ZM46.3165 9.2908C45.6274 9.30284 44.762 9.73072 44.4562 10.2295C44.0034 10.9783 44.1173 12.0762 44.6782 12.3644C45.2046 12.6369 46.1568 12.5319 46.6498 12.3182C47.0543 12.1436 47.5724 11.6912 47.6817 11.3407C48.0358 10.2679 46.9458 9.27248 46.3165 9.2908ZM46.4442 10.9452C46.3991 11.3748 45.9959 11.5376 45.629 11.3542C44.8287 10.9323 46.5528 10.0275 46.4442 10.9452ZM2.0632 20.422C2.81818 20.3566 3.42747 20.5292 4.08002 20.1755C4.74515 19.9317 5.49188 19.3707 5.83224 18.8876C6.39616 18.1143 6.34574 16.9869 5.90847 16.3255C5.20987 15.3954 4.36189 15.1977 3.17473 15.0126C2.68292 14.985 1.9449 15.004 1.6799 15.4588C1.35847 16.4506 1.06409 17.759 0.883359 18.7898C0.759752 19.6214 0.649943 20.3218 0.531999 21.2143C0.466128 21.7263 0.245757 22.3305 0.662847 22.495C1.31235 22.7443 1.6841 22.1921 1.80775 21.5897C1.89939 21.1771 1.93386 20.7342 2.0632 20.422ZM4.69024 18.2729C4.24692 19.0468 3.13711 19.3886 2.13839 19.2475C2.15713 18.6099 2.40446 17.6344 2.61852 16.8606C2.77169 16.3216 2.73525 16.2092 3.28798 16.2311C4.41984 16.2535 5.32634 17.1573 4.69024 18.2729ZM8.35649 19.4546C8.65295 19.3892 9.15731 19.2974 9.53856 19.2289C10.1038 19.1315 10.3959 18.9932 10.953 18.8587C11.2865 18.7852 11.5559 18.4032 11.5659 18.0785C11.5885 17.8637 11.4716 17.3688 11.4031 17.2168C11.0166 15.9575 10.0744 15.5085 8.86217 15.7914C8.36975 15.8844 7.78379 16.2934 7.44092 16.8003C7.00384 17.2853 6.79354 18.0234 6.91241 19.0735C7.13178 20.086 7.4057 20.4647 8.33098 20.9602C8.90576 21.3464 10.0916 21.3141 10.7467 20.9365C10.9671 20.7908 11.0657 20.4271 10.832 20.125C10.4073 19.8029 10.0054 20.4122 9.2234 20.1611C8.70958 19.9985 8.41058 19.8584 8.35649 19.4546ZM8.59357 17.199C9.4094 16.6694 10.1204 16.7924 10.3354 17.732C10.2544 17.9286 9.88698 18.0951 9.60622 18.1259C9.17974 18.1656 8.42667 18.3277 8.21561 18.2694C8.14272 18.0445 8.25693 17.417 8.59357 17.199ZM14.0256 16.0565C13.9308 15.9259 13.7474 15.8342 13.5671 15.8274C12.9201 15.7835 12.8988 16.2156 12.6986 17.0875C12.4896 18.0429 12.2845 19.6502 12.0981 20.6201C12.0359 20.8669 11.9593 21.1364 11.992 21.2846C12.0366 21.4341 12.2722 21.6037 12.45 21.6344C12.901 21.7059 13.1302 21.7059 13.2922 21.3127C13.4881 20.8265 13.6179 19.4767 13.7127 18.9195C13.734 18.7166 14.6032 18.253 15.1076 18.1612C15.318 18.1109 15.845 18.0336 16.1019 18.0002C16.3468 17.9656 16.8172 17.7376 16.7958 17.2527C16.7719 17.0209 16.5018 16.8356 16.2537 16.7854C15.8303 16.6806 15.3209 16.8201 14.9862 16.9056C14.6753 16.9936 14.2294 17.3328 13.941 17.206C14.0063 16.8147 14.1143 16.4761 14.0256 16.0565ZM21.9221 19.167C21.8749 18.8121 22.4933 17.1758 22.0429 16.7544C21.9229 16.6332 21.6497 16.5924 21.5109 16.6502C20.9582 16.8576 20.9181 17.4687 20.8114 18.2539C20.7512 18.5975 20.6639 19.083 20.5623 19.5912C20.4474 20.11 20.3778 20.6577 20.2993 21.0597C20.2002 21.544 20.0941 21.9793 20.3296 22.1489C20.4521 22.2462 20.8592 22.2769 21.0614 22.1896C21.2888 22.0928 21.4935 21.7524 21.6887 21.3868C22.0241 20.7222 22.3939 20.3025 22.7858 19.7887C22.9962 19.5091 23.182 19.1184 23.5344 19.0951C23.694 19.6428 23.3801 20.3338 23.2263 20.9933C23.1642 21.2402 23.0744 21.5203 23.0819 21.678C23.1216 22.3337 23.8766 22.2683 24.271 21.9598C24.7828 21.5672 25.2488 20.8077 25.6287 20.2926C25.7587 20.0891 25.9245 19.8893 26.1638 19.7938C26.1971 20.28 26.0446 20.6983 25.941 21.1097C25.8519 21.4985 25.6843 22.0601 25.7226 22.4985C25.7893 23.2416 26.6674 23.1528 26.923 22.6729C27.058 22.4217 27.1471 21.8036 27.2218 21.4374C27.3015 21.0235 27.3705 20.5963 27.4596 20.2075C27.5965 19.5945 28.034 18.0719 27.5315 17.8019C26.9253 17.4848 26.4154 18.2034 26.1284 18.5231C25.9507 18.7217 25.6951 18.9723 25.5161 19.1828C25.3371 19.3932 25.1274 19.5521 24.7738 19.8166C24.8823 18.6697 24.8946 17.1748 23.7094 17.5449C23.2478 17.6895 22.8019 18.258 22.5005 18.6003C22.3372 18.7762 22.0621 19.0972 21.9221 19.167ZM30.6924 17.7962C30.3043 17.8158 30.0995 17.927 29.7905 18.1117C29.2994 18.4221 29.2259 18.5471 28.9063 18.9478C28.2996 19.6684 28.0241 21.027 28.5651 21.9647C28.8735 22.3591 29.5256 22.8138 30.128 22.9374C30.8472 23.0974 31.4175 22.9523 31.9023 22.7016C32.7502 22.2115 33.3958 21.3503 33.3636 20.3937C33.4764 18.8611 32.4555 17.6678 30.6924 17.7962ZM29.568 20.8032C29.5277 20.0388 30.2172 18.9891 30.8742 18.9375C31.7259 18.8701 32.3478 19.8405 32.0277 20.8204C31.8638 21.3461 31.303 21.7457 30.9217 21.8142C30.1127 21.9343 29.602 21.398 29.568 20.8032ZM35.5866 20.6877C35.513 19.8956 36.0875 18.4477 35.1139 18.5264C34.5536 18.5761 34.5004 19.4272 34.405 20.105C34.2802 20.9485 34.0843 21.664 33.913 22.4906C33.7504 23.2337 33.5257 23.9943 34.4037 23.9056C34.7322 23.8798 35.2352 22.8829 35.4757 22.5462C35.8964 21.9872 35.8117 21.9903 36.4912 21.2654C36.765 20.9563 37.0513 20.5279 37.4263 20.519C37.4415 21.0636 37.3467 21.3915 37.2148 21.9568C37.0698 22.5328 36.9437 23.159 36.918 23.7476C37.1474 24.2061 37.979 24.1004 38.1768 23.711C38.2383 23.5847 38.2207 23.2933 38.2432 23.0784C38.3467 22.2085 38.7881 20.8793 38.803 20.0484C38.8074 19.6627 38.6628 19.2011 38.5284 19.1025C38.0956 18.7433 37.5963 19.0166 37.2621 19.2107C36.8238 19.4783 36.4495 19.8251 36.1455 20.1914C35.9929 20.3804 35.8227 20.5073 35.5866 20.6877ZM42.7649 19.1978C42.7189 18.3725 42.9676 18.0729 43.1176 17.4491C43.2689 17.0427 43.3731 16.7399 42.7727 16.713C41.8248 16.6617 41.8375 17.4594 41.6574 18.1403C41.5808 18.4097 41.4458 19.1195 41.2279 19.2414C41.0232 19.3526 40.201 19.2541 39.9441 19.2875C39.6953 19.3578 39.4674 19.5752 39.4077 19.7982C39.3267 19.9948 39.3714 20.3736 39.6082 20.5312C39.9368 20.7346 40.811 20.4525 41.041 20.7904C40.9205 21.4775 40.8509 22.0252 40.7316 22.4712C40.6971 22.6848 40.4585 23.5767 40.4002 23.7878C40.3562 23.9762 39.9858 24.975 40.0373 25.1735C40.1033 25.3493 40.4739 25.4969 40.7402 25.4887C41.3457 25.4678 41.5566 24.1507 41.6827 23.7537C41.7436 23.5187 41.9596 22.6124 42.0085 22.3762C42.0744 22.0935 42.2997 20.7537 42.5465 20.5866C42.7814 20.4182 43.7512 20.6046 44.1413 20.4526C44.4057 20.3476 44.5853 20.0166 44.5475 19.6868C44.4872 19.1134 43.0225 19.5024 42.7649 19.1978ZM46.9559 19.9882C46.8353 19.9876 47.0939 19.134 47.2063 18.639C47.2784 18.2967 47.5616 17.7835 47.375 17.3777C47.2757 17.1743 46.9648 17.033 46.6841 17.0638C46.1345 17.1267 46.0323 18.214 45.8791 18.9822C45.7297 19.7146 45.5791 20.2296 45.404 21.0921C45.1291 22.3301 44.9413 22.8534 44.679 23.9721C44.5239 24.6435 44.4669 25.3012 44.9844 25.428C45.73 25.5667 45.7915 24.9819 45.9151 24.3795C46.1455 23.4505 46.1806 22.8871 46.4606 22.0598C46.5994 21.7727 46.7966 21.5039 47.0314 21.3355C47.2425 21.1646 47.5251 21.0013 47.9189 21.0427C48.103 21.243 47.9122 22.5985 47.8941 22.8862C47.7479 24.1619 47.5169 25.2115 47.6256 25.4401C47.7343 25.6687 48.2482 25.8313 48.5396 25.5844C48.8693 25.3174 48.9175 24.5141 48.9846 23.761C49.0599 23.0449 49.2042 22.131 49.2299 21.5424C49.2687 20.714 49.119 19.8415 48.6052 19.6789C47.9161 19.4617 47.5789 20.0296 46.9559 19.9882Z" fill="white"/>
</svg>
